<svg width="370" height="39" viewBox="0 0 370 39" fill="none" xmlns="http://www.w3.org/2000/svg">
<path d="M33.8505 25.4648C33.9046 25.6619 33.9967 25.8464 34.1215 26.0077C34.2463 26.1689 34.4014 26.3038 34.5779 26.4046C34.7545 26.5055 34.949 26.5703 35.1503 26.5953C35.3517 26.6204 35.556 26.6052 35.7516 26.5507C35.9471 26.4962 36.1301 26.4033 36.2901 26.2775C36.4501 26.1517 36.5839 25.9953 36.6839 25.8174C36.7839 25.6394 36.8482 25.4434 36.8731 25.2404C36.8979 25.0374 36.8829 24.8314 36.8288 24.6343L33.8505 25.4648ZM24.9815 3.58113C24.7852 3.52333 24.5794 3.5054 24.3762 3.52839C24.1729 3.55137 23.9762 3.61482 23.7975 3.71505C23.6188 3.81527 23.4615 3.95028 23.335 4.11223C23.2084 4.27419 23.115 4.45987 23.0602 4.6585C23.0054 4.85714 22.9902 5.06476 23.0156 5.26934C23.041 5.47392 23.1065 5.67137 23.2082 5.85025C23.3099 6.02912 23.4459 6.18585 23.6081 6.31135C23.7704 6.43685 23.9558 6.52861 24.1535 6.58131L24.9815 3.58113ZM59.9713 26.4199C60.1725 26.373 60.3622 26.2859 60.5294 26.1639C60.6966 26.0418 60.8379 25.8872 60.9448 25.7091C61.0517 25.5311 61.1221 25.3333 61.1519 25.1273C61.1817 24.9214 61.1702 24.7116 61.1182 24.5102C61.0661 24.3088 60.9746 24.1199 60.8489 23.9548C60.7232 23.7897 60.566 23.6517 60.3865 23.5489C60.207 23.446 60.0089 23.3805 59.8039 23.3562C59.5988 23.3319 59.391 23.3492 59.1928 23.4072L59.9713 26.4199ZM39.3931 30.2277C40.0316 32.5531 38.631 35.0093 36.1512 35.6592L36.9276 38.6718C40.9996 37.6067 43.4877 33.4771 42.3714 29.3972L39.3931 30.2277ZM36.1512 35.6592C33.6548 36.3132 31.1503 34.8515 30.5076 32.5054L27.5293 33.3359C28.6416 37.3949 32.8721 39.7349 36.9276 38.6718L36.1512 35.6592ZM30.5076 32.5054C29.8691 30.18 31.2697 27.7238 33.7496 27.0739L32.9731 24.0633C28.9011 25.1285 26.4109 29.256 27.5293 33.3359L30.5076 32.5054ZM33.7496 27.0739C36.2459 26.4199 38.7505 27.8816 39.3931 30.2277L42.3714 29.3972C41.2591 25.3382 37.0286 22.9982 32.9731 24.0613L33.7496 27.0739ZM36.8288 24.6343L32.3964 8.46032L29.4181 9.29082L33.8505 25.4648L36.8288 24.6343ZM28.4912 4.56112L24.9815 3.58113L24.1535 6.58131L27.6653 7.56338L28.4912 4.56112ZM32.3964 8.46032C32.1345 7.52598 31.6372 6.67584 30.9529 5.99258C30.2686 5.30932 29.4206 4.81618 28.4912 4.56112L27.6694 7.56338C28.5448 7.80838 29.1956 8.47901 29.4181 9.29082L32.3964 8.46032ZM41.2736 31.3198L59.9713 26.4199L59.1948 23.4072L40.495 28.3072L41.2736 31.3198Z" fill="white"/>
<path opacity="0.5" d="M38.0914 11.8965C37.0924 8.25268 36.594 6.42973 37.4426 4.99504C38.2891 3.55828 40.1531 3.07036 43.8811 2.09245L47.8357 1.05847C51.5637 0.0826353 53.4277 -0.40736 54.8963 0.421064C56.3648 1.25156 56.8653 3.07244 57.8622 6.71833L58.923 10.5843C59.9219 14.2281 60.4224 16.0511 59.5738 17.4878C58.7252 18.9225 56.8612 19.4125 53.1332 20.3884L49.1786 21.4244C45.4506 22.4002 43.5866 22.8882 42.1181 22.0597C40.6495 21.2292 40.1511 19.4084 39.1521 15.7646L38.0914 11.8965Z" fill="white"/>
<path d="M83.2582 16.6936H80.0142C79.9217 16.1616 79.7511 15.6904 79.5024 15.2798C79.2538 14.8635 78.9444 14.5107 78.5743 14.2216C78.2043 13.9325 77.7821 13.7156 77.308 13.5711C76.8396 13.4207 76.3336 13.3456 75.7901 13.3456C74.8244 13.3456 73.9686 13.5884 73.2227 14.0742C72.4767 14.5541 71.8927 15.2596 71.4706 16.1905C71.0484 17.1157 70.8374 18.2462 70.8374 19.582C70.8374 20.9409 71.0484 22.0858 71.4706 23.0168C71.8985 23.942 72.4825 24.6416 73.2227 25.1158C73.9686 25.5842 74.8215 25.8184 75.7814 25.8184C76.3134 25.8184 76.8107 25.749 77.2733 25.6102C77.7417 25.4656 78.1609 25.2546 78.531 24.977C78.9068 24.6995 79.222 24.3583 79.4764 23.9535C79.7366 23.5488 79.9159 23.0862 80.0142 22.5657L83.2582 22.5831C83.1367 23.4273 82.8736 24.2195 82.4689 24.9597C82.0699 25.6998 81.5465 26.3533 80.8989 26.9199C80.2513 27.4808 79.4938 27.9203 78.6264 28.2384C77.759 28.5506 76.7962 28.7067 75.738 28.7067C74.1768 28.7067 72.7832 28.3453 71.5573 27.6225C70.3314 26.8997 69.3657 25.856 68.6603 24.4913C67.9548 23.1266 67.6021 21.4902 67.6021 19.582C67.6021 17.668 67.9577 16.0315 68.669 14.6726C69.3802 13.308 70.3488 12.2642 71.5747 11.5414C72.8005 10.8186 74.1883 10.4572 75.738 10.4572C76.7268 10.4572 77.6463 10.596 78.4963 10.8735C79.3463 11.1511 80.1038 11.5588 80.7688 12.0965C81.4338 12.6285 81.9802 13.282 82.4081 14.0568C82.8418 14.8259 83.1252 15.7048 83.2582 16.6936ZM93.1566 28.4639H89.7218L95.9756 10.7001H99.9481L106.211 28.4639H102.776L98.0313 14.343H97.8925L93.1566 28.4639ZM93.2694 21.4989H102.637V24.0836H93.2694V21.4989ZM113.435 28.4639V10.7001H120.097C121.461 10.7001 122.606 10.9372 123.532 11.4113C124.463 11.8855 125.165 12.5505 125.639 13.4063C126.119 14.2563 126.359 15.248 126.359 16.3814C126.359 17.5205 126.116 18.5093 125.631 19.3478C125.151 20.1805 124.442 20.8252 123.506 21.282C122.569 21.7331 121.418 21.9586 120.053 21.9586H115.309V19.2871H119.62C120.418 19.2871 121.071 19.1772 121.58 18.9575C122.089 18.7319 122.465 18.4052 122.708 17.9773C122.956 17.5436 123.081 17.0117 123.081 16.3814C123.081 15.7511 122.956 15.2133 122.708 14.7681C122.459 14.317 122.08 13.9759 121.571 13.7446C121.062 13.5075 120.406 13.3889 119.602 13.3889H116.653V28.4639H113.435ZM122.612 20.4146L127.01 28.4639H123.419L119.099 20.4146H122.612ZM146.107 16.3727C145.962 15.9043 145.763 15.4851 145.508 15.115C145.26 14.7391 144.959 14.4182 144.606 14.1522C144.259 13.8862 143.86 13.6867 143.409 13.5537C142.958 13.415 142.467 13.3456 141.935 13.3456C140.981 13.3456 140.13 13.5855 139.385 14.0655C138.639 14.5454 138.052 15.2509 137.624 16.1819C137.202 17.1071 136.991 18.2347 136.991 19.5646C136.991 20.9062 137.202 22.0424 137.624 22.9734C138.046 23.9044 138.633 24.6127 139.385 25.0985C140.136 25.5784 141.009 25.8184 142.004 25.8184C142.906 25.8184 143.687 25.6449 144.346 25.298C145.011 24.951 145.523 24.4595 145.881 23.8234C146.24 23.1816 146.419 22.4298 146.419 21.5683L147.148 21.681H142.325V19.1656H149.533V21.2994C149.533 22.8202 149.209 24.1357 148.561 25.2459C147.914 26.3562 147.023 27.212 145.89 27.8133C144.756 28.4089 143.455 28.7067 141.987 28.7067C140.35 28.7067 138.913 28.3395 137.676 27.6052C136.444 26.865 135.481 25.8155 134.787 24.4566C134.099 23.0919 133.755 21.4728 133.755 19.5993C133.755 18.1653 133.958 16.8844 134.362 15.7569C134.773 14.6293 135.345 13.6723 136.08 12.8859C136.814 12.0937 137.676 11.4923 138.665 11.0817C139.653 10.6654 140.729 10.4572 141.891 10.4572C142.874 10.4572 143.791 10.6018 144.641 10.8909C145.491 11.1742 146.245 11.579 146.905 12.1052C147.57 12.6314 148.116 13.2559 148.544 13.9787C148.972 14.7016 149.252 15.4995 149.385 16.3727H146.107ZM173.402 19.582C173.402 21.496 173.044 23.1353 172.327 24.5C171.616 25.8589 170.644 26.8997 169.413 27.6225C168.187 28.3453 166.796 28.7067 165.24 28.7067C163.685 28.7067 162.291 28.3453 161.06 27.6225C159.834 26.8939 158.862 25.8502 158.145 24.4913C157.434 23.1266 157.079 21.4902 157.079 19.582C157.079 17.668 157.434 16.0315 158.145 14.6726C158.862 13.308 159.834 12.2642 161.06 11.5414C162.291 10.8186 163.685 10.4572 165.24 10.4572C166.796 10.4572 168.187 10.8186 169.413 11.5414C170.644 12.2642 171.616 13.308 172.327 14.6726C173.044 16.0315 173.402 17.668 173.402 19.582ZM170.167 19.582C170.167 18.2347 169.956 17.0984 169.534 16.1732C169.118 15.2422 168.539 14.5396 167.799 14.0655C167.059 13.5855 166.206 13.3456 165.24 13.3456C164.275 13.3456 163.422 13.5855 162.682 14.0655C161.942 14.5396 161.36 15.2422 160.938 16.1732C160.522 17.0984 160.314 18.2347 160.314 19.582C160.314 20.9293 160.522 22.0684 160.938 22.9994C161.36 23.9246 161.942 24.6272 162.682 25.1071C163.422 25.5813 164.275 25.8184 165.24 25.8184C166.206 25.8184 167.059 25.5813 167.799 25.1071C168.539 24.6272 169.118 23.9246 169.534 22.9994C169.956 22.0684 170.167 20.9293 170.167 19.582ZM207.479 16.6936H204.235C204.142 16.1616 203.971 15.6904 203.723 15.2798C203.474 14.8635 203.165 14.5107 202.795 14.2216C202.425 13.9325 202.002 13.7156 201.528 13.5711C201.06 13.4207 200.554 13.3456 200.01 13.3456C199.045 13.3456 198.189 13.5884 197.443 14.0742C196.697 14.5541 196.113 15.2596 195.691 16.1905C195.269 17.1157 195.058 18.2462 195.058 19.582C195.058 20.9409 195.269 22.0858 195.691 23.0168C196.119 23.942 196.703 24.6416 197.443 25.1158C198.189 25.5842 199.042 25.8184 200.002 25.8184C200.534 25.8184 201.031 25.749 201.494 25.6102C201.962 25.4656 202.381 25.2546 202.751 24.977C203.127 24.6995 203.442 24.3583 203.697 23.9535C203.957 23.5488 204.136 23.0862 204.235 22.5657L207.479 22.5831C207.357 23.4273 207.094 24.2195 206.689 24.9597C206.29 25.6998 205.767 26.3533 205.119 26.9199C204.472 27.4808 203.714 27.9203 202.847 28.2384C201.979 28.5506 201.017 28.7067 199.958 28.7067C198.397 28.7067 197.004 28.3453 195.778 27.6225C194.552 26.8997 193.586 25.856 192.881 24.4913C192.175 23.1266 191.822 21.4902 191.822 19.582C191.822 17.668 192.178 16.0315 192.889 14.6726C193.601 13.308 194.569 12.2642 195.795 11.5414C197.021 10.8186 198.409 10.4572 199.958 10.4572C200.947 10.4572 201.867 10.596 202.717 10.8735C203.567 11.1511 204.324 11.5588 204.989 12.0965C205.654 12.6285 206.201 13.282 206.628 14.0568C207.062 14.8259 207.346 15.7048 207.479 16.6936ZM231.183 19.582C231.183 21.496 230.825 23.1353 230.108 24.5C229.397 25.8589 228.425 26.8997 227.193 27.6225C225.968 28.3453 224.577 28.7067 223.021 28.7067C221.466 28.7067 220.072 28.3453 218.841 27.6225C217.615 26.8939 216.643 25.8502 215.926 24.4913C215.215 23.1266 214.859 21.4902 214.859 19.582C214.859 17.668 215.215 16.0315 215.926 14.6726C216.643 13.308 217.615 12.2642 218.841 11.5414C220.072 10.8186 221.466 10.4572 223.021 10.4572C224.577 10.4572 225.968 10.8186 227.193 11.5414C228.425 12.2642 229.397 13.308 230.108 14.6726C230.825 16.0315 231.183 17.668 231.183 19.582ZM227.948 19.582C227.948 18.2347 227.737 17.0984 227.315 16.1732C226.899 15.2422 226.32 14.5396 225.58 14.0655C224.84 13.5855 223.987 13.3456 223.021 13.3456C222.056 13.3456 221.203 13.5855 220.463 14.0655C219.722 14.5396 219.141 15.2422 218.719 16.1732C218.303 17.0984 218.095 18.2347 218.095 19.582C218.095 20.9293 218.303 22.0684 218.719 22.9994C219.141 23.9246 219.722 24.6272 220.463 25.1071C221.203 25.5813 222.056 25.8184 223.021 25.8184C223.987 25.8184 224.84 25.5813 225.58 25.1071C226.32 24.6272 226.899 23.9246 227.315 22.9994C227.737 22.0684 227.948 20.9293 227.948 19.582ZM253.709 10.7001V28.4639H250.846L242.476 16.364H242.329V28.4639H239.111V10.7001H241.99L250.352 22.8086H250.508V10.7001H253.709ZM276.698 10.7001V28.4639H273.836L265.465 16.364H265.318V28.4639H262.1V10.7001H264.98L273.341 22.8086H273.497V10.7001H276.698ZM285.089 28.4639V10.7001H296.643V13.3976H288.307V18.2202H296.044V20.9177H288.307V25.7663H296.712V28.4639H285.089ZM320.016 16.6936H316.772C316.679 16.1616 316.509 15.6904 316.26 15.2798C316.011 14.8635 315.702 14.5107 315.332 14.2216C314.962 13.9325 314.54 13.7156 314.066 13.5711C313.597 13.4207 313.091 13.3456 312.548 13.3456C311.582 13.3456 310.726 13.5884 309.98 14.0742C309.234 14.5541 308.65 15.2596 308.228 16.1905C307.806 17.1157 307.595 18.2462 307.595 19.582C307.595 20.9409 307.806 22.0858 308.228 23.0168C308.656 23.942 309.24 24.6416 309.98 25.1158C310.726 25.5842 311.579 25.8184 312.539 25.8184C313.071 25.8184 313.568 25.749 314.031 25.6102C314.499 25.4656 314.919 25.2546 315.289 24.977C315.664 24.6995 315.98 24.3583 316.234 23.9535C316.494 23.5488 316.673 23.0862 316.772 22.5657L320.016 22.5831C319.894 23.4273 319.631 24.2195 319.226 24.9597C318.827 25.6998 318.304 26.3533 317.657 26.9199C317.009 27.4808 316.251 27.9203 315.384 28.2384C314.517 28.5506 313.554 28.7067 312.496 28.7067C310.934 28.7067 309.541 28.3453 308.315 27.6225C307.089 26.8997 306.123 25.856 305.418 24.4913C304.712 23.1266 304.36 21.4902 304.36 19.582C304.36 17.668 304.715 16.0315 305.427 14.6726C306.138 13.308 307.106 12.2642 308.332 11.5414C309.558 10.8186 310.946 10.4572 312.496 10.4572C313.484 10.4572 314.404 10.596 315.254 10.8735C316.104 11.1511 316.861 11.5588 317.526 12.0965C318.191 12.6285 318.738 13.282 319.166 14.0568C319.599 14.8259 319.883 15.7048 320.016 16.6936ZM327.067 13.3976V10.7001H341.24V13.3976H335.749V28.4639H332.558V13.3976H327.067Z" fill="white"/>
</svg>
